<?xml version="1.0" encoding="iso-8859-1"?>
<!DOCTYPE svg PUBLIC "-//W3C//DTD SVG 1.1//EN" "http://www.w3.org/Graphics/SVG/1.1/DTD/svg11.dtd">
<svg fill="#000000" version="1.1" id="Capa_1" xmlns="http://www.w3.org/2000/svg" xmlns:xlink="http://www.w3.org/1999/xlink" 
	 width="800px" height="800px" viewBox="0 0 465.793 465.793"
	 xml:space="preserve">
<g>
	<path d="M401.322,465.793l7.222-16.993H16.993V57.25L0,64.471L27.193,0l27.193,64.471L37.393,57.25V428.4h371.151l-7.222-16.993
		l64.471,27.193L401.322,465.793z M71.393,401.2h68v-81.6h-68V401.2z M241.393,401.2V244.8h-68v156.4H241.393z M288.993,401.2h68
		V176.8h-68V401.2z M69.102,221.259l4.583,19.883c73.896-17.054,185.13-66.47,261.746-150.076l25.473,18.965l9.689-82.831
		l-76.574,33.021l24.976,18.604C245.616,158.053,139.665,204.979,69.102,221.259z"/>
</g>
</svg>